<mxfile host="65bd71144e">
    <diagram id="ILKdR6ISz-Sm3e3wCr2D" name="Page-1">
        <mxGraphModel dx="1177" dy="741" grid="1" gridSize="10" guides="1" tooltips="1" connect="1" arrows="1" fold="1" page="1" pageScale="1" pageWidth="827" pageHeight="1169" math="0" shadow="0">
            <root>
                <mxCell id="0"/>
                <mxCell id="1" parent="0"/>
                <mxCell id="2" value="Volume with JS" style="swimlane;startSize=70;fontSize=20;" vertex="1" parent="1">
                    <mxGeometry x="100" y="170" width="630" height="510" as="geometry"/>
                </mxCell>
                <mxCell id="3" value="" style="ellipse;whiteSpace=wrap;html=1;aspect=fixed;fontSize=20;" vertex="1" parent="2">
                    <mxGeometry x="40" y="140" width="150" height="150" as="geometry"/>
                </mxCell>
                <mxCell id="4" value="" style="rounded=0;whiteSpace=wrap;html=1;fontSize=20;" vertex="1" parent="2">
                    <mxGeometry x="30" y="350" width="310" height="30" as="geometry"/>
                </mxCell>
                <mxCell id="5" value="V=4/3(3.14)(R)" style="text;strokeColor=none;fillColor=none;html=1;fontSize=24;fontStyle=1;verticalAlign=middle;align=center;" vertex="1" parent="2">
                    <mxGeometry x="60" y="90" width="100" height="40" as="geometry"/>
                </mxCell>
                <UserObject label="R (radius)" placeholders="1" id="6">
                    <mxCell style="text;html=1;strokeColor=none;fillColor=none;align=center;verticalAlign=middle;whiteSpace=wrap;overflow=hidden;fontSize=20;" vertex="1" parent="2">
                        <mxGeometry y="310" width="160" height="30" as="geometry"/>
                    </mxCell>
                </UserObject>
            </root>
        </mxGraphModel>
    </diagram>
</mxfile>